<mxfile host="app.diagrams.net" modified="2020-11-17T17:24:04.495Z" agent="5.0 (Windows NT 10.0; Win64; x64) AppleWebKit/537.36 (KHTML, like Gecko) Chrome/86.0.4240.198 Safari/537.36" etag="-QAeXUq9T2eu1aBoReMg" version="13.8.8" type="github">
  <diagram id="ITeM7Psa3bSz5ZxjTPsV" name="Page-1">
    <mxGraphModel dx="1038" dy="547" grid="1" gridSize="10" guides="1" tooltips="1" connect="1" arrows="1" fold="1" page="1" pageScale="1" pageWidth="850" pageHeight="1100" math="0" shadow="0">
      <root>
        <mxCell id="0" />
        <mxCell id="1" parent="0" />
        <mxCell id="tShOzbmwnhTDqzE2ZRqq-1" value="Created Auto ML Run To Determine Best Model" style="rounded=1;whiteSpace=wrap;html=1;" vertex="1" parent="1">
          <mxGeometry x="100" y="130" width="120" height="60" as="geometry" />
        </mxCell>
        <mxCell id="tShOzbmwnhTDqzE2ZRqq-2" value="" style="endArrow=classic;html=1;" edge="1" parent="1">
          <mxGeometry width="50" height="50" relative="1" as="geometry">
            <mxPoint x="220" y="159.5" as="sourcePoint" />
            <mxPoint x="270" y="159.5" as="targetPoint" />
          </mxGeometry>
        </mxCell>
        <mxCell id="tShOzbmwnhTDqzE2ZRqq-3" value="Deployed Best Model" style="rounded=1;whiteSpace=wrap;html=1;" vertex="1" parent="1">
          <mxGeometry x="280" y="130" width="120" height="60" as="geometry" />
        </mxCell>
        <mxCell id="tShOzbmwnhTDqzE2ZRqq-4" value="" style="endArrow=classic;html=1;" edge="1" parent="1">
          <mxGeometry width="50" height="50" relative="1" as="geometry">
            <mxPoint x="407" y="159.5" as="sourcePoint" />
            <mxPoint x="457" y="159.5" as="targetPoint" />
          </mxGeometry>
        </mxCell>
        <mxCell id="tShOzbmwnhTDqzE2ZRqq-5" value="Enabled Application Insights" style="rounded=1;whiteSpace=wrap;html=1;" vertex="1" parent="1">
          <mxGeometry x="460" y="130" width="120" height="60" as="geometry" />
        </mxCell>
        <mxCell id="tShOzbmwnhTDqzE2ZRqq-8" value="" style="endArrow=classic;html=1;" edge="1" parent="1">
          <mxGeometry width="50" height="50" relative="1" as="geometry">
            <mxPoint x="590" y="159.5" as="sourcePoint" />
            <mxPoint x="640" y="159.5" as="targetPoint" />
          </mxGeometry>
        </mxCell>
        <mxCell id="tShOzbmwnhTDqzE2ZRqq-9" value="Enabled Application Insights" style="rounded=1;whiteSpace=wrap;html=1;" vertex="1" parent="1">
          <mxGeometry x="470" y="140" width="120" height="60" as="geometry" />
        </mxCell>
      </root>
    </mxGraphModel>
  </diagram>
</mxfile>
